%TF.GenerationSoftware,KiCad,Pcbnew,6.0.8-1.fc36*%
%TF.CreationDate,2022-10-27T22:21:34-04:00*%
%TF.ProjectId,16bit_computer,31366269-745f-4636-9f6d-70757465722e,rev?*%
%TF.SameCoordinates,Original*%
%TF.FileFunction,Legend,Top*%
%TF.FilePolarity,Positive*%
%FSLAX46Y46*%
G04 Gerber Fmt 4.6, Leading zero omitted, Abs format (unit mm)*
G04 Created by KiCad (PCBNEW 6.0.8-1.fc36) date 2022-10-27 22:21:34*
%MOMM*%
%LPD*%
G01*
G04 APERTURE LIST*
%ADD10C,0.150000*%
%ADD11C,0.300000*%
%ADD12C,0.120000*%
G04 APERTURE END LIST*
D10*
X57697619Y-152461547D02*
X56697619Y-152794880D01*
X57697619Y-153128214D01*
X56745238Y-153413928D02*
X56697619Y-153509166D01*
X56697619Y-153699642D01*
X56745238Y-153794880D01*
X56840476Y-153842500D01*
X56888095Y-153842500D01*
X56983333Y-153794880D01*
X57030952Y-153699642D01*
X57030952Y-153556785D01*
X57078571Y-153461547D01*
X57173809Y-153413928D01*
X57221428Y-153413928D01*
X57316666Y-153461547D01*
X57364285Y-153556785D01*
X57364285Y-153699642D01*
X57316666Y-153794880D01*
X56745238Y-154223452D02*
X56697619Y-154318690D01*
X56697619Y-154509166D01*
X56745238Y-154604404D01*
X56840476Y-154652023D01*
X56888095Y-154652023D01*
X56983333Y-154604404D01*
X57030952Y-154509166D01*
X57030952Y-154366309D01*
X57078571Y-154271071D01*
X57173809Y-154223452D01*
X57221428Y-154223452D01*
X57316666Y-154271071D01*
X57364285Y-154366309D01*
X57364285Y-154509166D01*
X57316666Y-154604404D01*
X55157619Y-152271071D02*
X54157619Y-152604404D01*
X55157619Y-152937738D01*
X54157619Y-153699642D02*
X55157619Y-153699642D01*
X54205238Y-153699642D02*
X54157619Y-153604404D01*
X54157619Y-153413928D01*
X54205238Y-153318690D01*
X54252857Y-153271071D01*
X54348095Y-153223452D01*
X54633809Y-153223452D01*
X54729047Y-153271071D01*
X54776666Y-153318690D01*
X54824285Y-153413928D01*
X54824285Y-153604404D01*
X54776666Y-153699642D01*
X54157619Y-154604404D02*
X55157619Y-154604404D01*
X54205238Y-154604404D02*
X54157619Y-154509166D01*
X54157619Y-154318690D01*
X54205238Y-154223452D01*
X54252857Y-154175833D01*
X54348095Y-154128214D01*
X54633809Y-154128214D01*
X54729047Y-154175833D01*
X54776666Y-154223452D01*
X54824285Y-154318690D01*
X54824285Y-154509166D01*
X54776666Y-154604404D01*
X52900000Y-149318690D02*
X52900000Y-150223452D01*
X52141428Y-149556785D02*
X52141428Y-149890119D01*
X51617619Y-150032976D02*
X51617619Y-149556785D01*
X52617619Y-149556785D01*
X52617619Y-150032976D01*
X52900000Y-150223452D02*
X52900000Y-151271071D01*
X51617619Y-150461547D02*
X52617619Y-150461547D01*
X51617619Y-151032976D01*
X52617619Y-151032976D01*
X52900000Y-151271071D02*
X52900000Y-152128214D01*
X51903333Y-151461547D02*
X51903333Y-151937738D01*
X51617619Y-151366309D02*
X52617619Y-151699642D01*
X51617619Y-152032976D01*
X52900000Y-152128214D02*
X52900000Y-153128214D01*
X52141428Y-152699642D02*
X52093809Y-152842500D01*
X52046190Y-152890119D01*
X51950952Y-152937738D01*
X51808095Y-152937738D01*
X51712857Y-152890119D01*
X51665238Y-152842500D01*
X51617619Y-152747261D01*
X51617619Y-152366309D01*
X52617619Y-152366309D01*
X52617619Y-152699642D01*
X52570000Y-152794880D01*
X52522380Y-152842500D01*
X52427142Y-152890119D01*
X52331904Y-152890119D01*
X52236666Y-152842500D01*
X52189047Y-152794880D01*
X52141428Y-152699642D01*
X52141428Y-152366309D01*
X52900000Y-153128214D02*
X52900000Y-153937738D01*
X51617619Y-153842500D02*
X51617619Y-153366309D01*
X52617619Y-153366309D01*
X52900000Y-153937738D02*
X52900000Y-154842500D01*
X52141428Y-154175833D02*
X52141428Y-154509166D01*
X51617619Y-154652023D02*
X51617619Y-154175833D01*
X52617619Y-154175833D01*
X52617619Y-154652023D01*
D11*
X48851428Y-150245000D02*
X48851428Y-149530714D01*
X50351428Y-149530714D01*
X50351428Y-151030714D02*
X50351428Y-151316428D01*
X50280000Y-151459285D01*
X50137142Y-151602142D01*
X49851428Y-151673571D01*
X49351428Y-151673571D01*
X49065714Y-151602142D01*
X48922857Y-151459285D01*
X48851428Y-151316428D01*
X48851428Y-151030714D01*
X48922857Y-150887857D01*
X49065714Y-150745000D01*
X49351428Y-150673571D01*
X49851428Y-150673571D01*
X50137142Y-150745000D01*
X50280000Y-150887857D01*
X50351428Y-151030714D01*
X49280000Y-152245000D02*
X49280000Y-152959285D01*
X48851428Y-152102142D02*
X50351428Y-152602142D01*
X48851428Y-153102142D01*
X48851428Y-153602142D02*
X50351428Y-153602142D01*
X50351428Y-153959285D01*
X50280000Y-154173571D01*
X50137142Y-154316428D01*
X49994285Y-154387857D01*
X49708571Y-154459285D01*
X49494285Y-154459285D01*
X49208571Y-154387857D01*
X49065714Y-154316428D01*
X48922857Y-154173571D01*
X48851428Y-153959285D01*
X48851428Y-153602142D01*
X46454285Y-151745000D02*
X46382857Y-151673571D01*
X46311428Y-151459285D01*
X46311428Y-151316428D01*
X46382857Y-151102142D01*
X46525714Y-150959285D01*
X46668571Y-150887857D01*
X46954285Y-150816428D01*
X47168571Y-150816428D01*
X47454285Y-150887857D01*
X47597142Y-150959285D01*
X47740000Y-151102142D01*
X47811428Y-151316428D01*
X47811428Y-151459285D01*
X47740000Y-151673571D01*
X47668571Y-151745000D01*
X46311428Y-153102142D02*
X46311428Y-152387857D01*
X47811428Y-152387857D01*
X46311428Y-153602142D02*
X47811428Y-153602142D01*
X46311428Y-154459285D02*
X47168571Y-153816428D01*
X47811428Y-154459285D02*
X46954285Y-153602142D01*
D10*
%TO.C,D7*%
X90895595Y-89352380D02*
X90895595Y-88352380D01*
X91133690Y-88352380D01*
X91276547Y-88400000D01*
X91371785Y-88495238D01*
X91419404Y-88590476D01*
X91467023Y-88780952D01*
X91467023Y-88923809D01*
X91419404Y-89114285D01*
X91371785Y-89209523D01*
X91276547Y-89304761D01*
X91133690Y-89352380D01*
X90895595Y-89352380D01*
X91800357Y-88352380D02*
X92467023Y-88352380D01*
X92038452Y-89352380D01*
%TO.C,D10*%
X90895595Y-105862380D02*
X90895595Y-104862380D01*
X91133690Y-104862380D01*
X91276547Y-104910000D01*
X91371785Y-105005238D01*
X91419404Y-105100476D01*
X91467023Y-105290952D01*
X91467023Y-105433809D01*
X91419404Y-105624285D01*
X91371785Y-105719523D01*
X91276547Y-105814761D01*
X91133690Y-105862380D01*
X90895595Y-105862380D01*
X92419404Y-105862380D02*
X91847976Y-105862380D01*
X92133690Y-105862380D02*
X92133690Y-104862380D01*
X92038452Y-105005238D01*
X91943214Y-105100476D01*
X91847976Y-105148095D01*
X93038452Y-104862380D02*
X93133690Y-104862380D01*
X93228928Y-104910000D01*
X93276547Y-104957619D01*
X93324166Y-105052857D01*
X93371785Y-105243333D01*
X93371785Y-105481428D01*
X93324166Y-105671904D01*
X93276547Y-105767142D01*
X93228928Y-105814761D01*
X93133690Y-105862380D01*
X93038452Y-105862380D01*
X92943214Y-105814761D01*
X92895595Y-105767142D01*
X92847976Y-105671904D01*
X92800357Y-105481428D01*
X92800357Y-105243333D01*
X92847976Y-105052857D01*
X92895595Y-104957619D01*
X92943214Y-104910000D01*
X93038452Y-104862380D01*
%TO.C,D13*%
X90895595Y-113482380D02*
X90895595Y-112482380D01*
X91133690Y-112482380D01*
X91276547Y-112530000D01*
X91371785Y-112625238D01*
X91419404Y-112720476D01*
X91467023Y-112910952D01*
X91467023Y-113053809D01*
X91419404Y-113244285D01*
X91371785Y-113339523D01*
X91276547Y-113434761D01*
X91133690Y-113482380D01*
X90895595Y-113482380D01*
X92419404Y-113482380D02*
X91847976Y-113482380D01*
X92133690Y-113482380D02*
X92133690Y-112482380D01*
X92038452Y-112625238D01*
X91943214Y-112720476D01*
X91847976Y-112768095D01*
X92752738Y-112482380D02*
X93371785Y-112482380D01*
X93038452Y-112863333D01*
X93181309Y-112863333D01*
X93276547Y-112910952D01*
X93324166Y-112958571D01*
X93371785Y-113053809D01*
X93371785Y-113291904D01*
X93324166Y-113387142D01*
X93276547Y-113434761D01*
X93181309Y-113482380D01*
X92895595Y-113482380D01*
X92800357Y-113434761D01*
X92752738Y-113387142D01*
%TO.C,D6*%
X90895595Y-86812380D02*
X90895595Y-85812380D01*
X91133690Y-85812380D01*
X91276547Y-85860000D01*
X91371785Y-85955238D01*
X91419404Y-86050476D01*
X91467023Y-86240952D01*
X91467023Y-86383809D01*
X91419404Y-86574285D01*
X91371785Y-86669523D01*
X91276547Y-86764761D01*
X91133690Y-86812380D01*
X90895595Y-86812380D01*
X92324166Y-85812380D02*
X92133690Y-85812380D01*
X92038452Y-85860000D01*
X91990833Y-85907619D01*
X91895595Y-86050476D01*
X91847976Y-86240952D01*
X91847976Y-86621904D01*
X91895595Y-86717142D01*
X91943214Y-86764761D01*
X92038452Y-86812380D01*
X92228928Y-86812380D01*
X92324166Y-86764761D01*
X92371785Y-86717142D01*
X92419404Y-86621904D01*
X92419404Y-86383809D01*
X92371785Y-86288571D01*
X92324166Y-86240952D01*
X92228928Y-86193333D01*
X92038452Y-86193333D01*
X91943214Y-86240952D01*
X91895595Y-86288571D01*
X91847976Y-86383809D01*
%TO.C,D12*%
X90895595Y-110942380D02*
X90895595Y-109942380D01*
X91133690Y-109942380D01*
X91276547Y-109990000D01*
X91371785Y-110085238D01*
X91419404Y-110180476D01*
X91467023Y-110370952D01*
X91467023Y-110513809D01*
X91419404Y-110704285D01*
X91371785Y-110799523D01*
X91276547Y-110894761D01*
X91133690Y-110942380D01*
X90895595Y-110942380D01*
X92419404Y-110942380D02*
X91847976Y-110942380D01*
X92133690Y-110942380D02*
X92133690Y-109942380D01*
X92038452Y-110085238D01*
X91943214Y-110180476D01*
X91847976Y-110228095D01*
X92800357Y-110037619D02*
X92847976Y-109990000D01*
X92943214Y-109942380D01*
X93181309Y-109942380D01*
X93276547Y-109990000D01*
X93324166Y-110037619D01*
X93371785Y-110132857D01*
X93371785Y-110228095D01*
X93324166Y-110370952D01*
X92752738Y-110942380D01*
X93371785Y-110942380D01*
%TO.C,D11*%
X90895595Y-108402380D02*
X90895595Y-107402380D01*
X91133690Y-107402380D01*
X91276547Y-107450000D01*
X91371785Y-107545238D01*
X91419404Y-107640476D01*
X91467023Y-107830952D01*
X91467023Y-107973809D01*
X91419404Y-108164285D01*
X91371785Y-108259523D01*
X91276547Y-108354761D01*
X91133690Y-108402380D01*
X90895595Y-108402380D01*
X92419404Y-108402380D02*
X91847976Y-108402380D01*
X92133690Y-108402380D02*
X92133690Y-107402380D01*
X92038452Y-107545238D01*
X91943214Y-107640476D01*
X91847976Y-107688095D01*
X93371785Y-108402380D02*
X92800357Y-108402380D01*
X93086071Y-108402380D02*
X93086071Y-107402380D01*
X92990833Y-107545238D01*
X92895595Y-107640476D01*
X92800357Y-107688095D01*
%TO.C,D5*%
X90895595Y-84272380D02*
X90895595Y-83272380D01*
X91133690Y-83272380D01*
X91276547Y-83320000D01*
X91371785Y-83415238D01*
X91419404Y-83510476D01*
X91467023Y-83700952D01*
X91467023Y-83843809D01*
X91419404Y-84034285D01*
X91371785Y-84129523D01*
X91276547Y-84224761D01*
X91133690Y-84272380D01*
X90895595Y-84272380D01*
X92371785Y-83272380D02*
X91895595Y-83272380D01*
X91847976Y-83748571D01*
X91895595Y-83700952D01*
X91990833Y-83653333D01*
X92228928Y-83653333D01*
X92324166Y-83700952D01*
X92371785Y-83748571D01*
X92419404Y-83843809D01*
X92419404Y-84081904D01*
X92371785Y-84177142D01*
X92324166Y-84224761D01*
X92228928Y-84272380D01*
X91990833Y-84272380D01*
X91895595Y-84224761D01*
X91847976Y-84177142D01*
%TO.C,D1*%
X90895595Y-74112380D02*
X90895595Y-73112380D01*
X91133690Y-73112380D01*
X91276547Y-73160000D01*
X91371785Y-73255238D01*
X91419404Y-73350476D01*
X91467023Y-73540952D01*
X91467023Y-73683809D01*
X91419404Y-73874285D01*
X91371785Y-73969523D01*
X91276547Y-74064761D01*
X91133690Y-74112380D01*
X90895595Y-74112380D01*
X92419404Y-74112380D02*
X91847976Y-74112380D01*
X92133690Y-74112380D02*
X92133690Y-73112380D01*
X92038452Y-73255238D01*
X91943214Y-73350476D01*
X91847976Y-73398095D01*
%TO.C,D2*%
X90895595Y-76652380D02*
X90895595Y-75652380D01*
X91133690Y-75652380D01*
X91276547Y-75700000D01*
X91371785Y-75795238D01*
X91419404Y-75890476D01*
X91467023Y-76080952D01*
X91467023Y-76223809D01*
X91419404Y-76414285D01*
X91371785Y-76509523D01*
X91276547Y-76604761D01*
X91133690Y-76652380D01*
X90895595Y-76652380D01*
X91847976Y-75747619D02*
X91895595Y-75700000D01*
X91990833Y-75652380D01*
X92228928Y-75652380D01*
X92324166Y-75700000D01*
X92371785Y-75747619D01*
X92419404Y-75842857D01*
X92419404Y-75938095D01*
X92371785Y-76080952D01*
X91800357Y-76652380D01*
X92419404Y-76652380D01*
%TO.C,D14*%
X90895595Y-116022380D02*
X90895595Y-115022380D01*
X91133690Y-115022380D01*
X91276547Y-115070000D01*
X91371785Y-115165238D01*
X91419404Y-115260476D01*
X91467023Y-115450952D01*
X91467023Y-115593809D01*
X91419404Y-115784285D01*
X91371785Y-115879523D01*
X91276547Y-115974761D01*
X91133690Y-116022380D01*
X90895595Y-116022380D01*
X92419404Y-116022380D02*
X91847976Y-116022380D01*
X92133690Y-116022380D02*
X92133690Y-115022380D01*
X92038452Y-115165238D01*
X91943214Y-115260476D01*
X91847976Y-115308095D01*
X93276547Y-115355714D02*
X93276547Y-116022380D01*
X93038452Y-114974761D02*
X92800357Y-115689047D01*
X93419404Y-115689047D01*
%TO.C,D4*%
X90895595Y-81732380D02*
X90895595Y-80732380D01*
X91133690Y-80732380D01*
X91276547Y-80780000D01*
X91371785Y-80875238D01*
X91419404Y-80970476D01*
X91467023Y-81160952D01*
X91467023Y-81303809D01*
X91419404Y-81494285D01*
X91371785Y-81589523D01*
X91276547Y-81684761D01*
X91133690Y-81732380D01*
X90895595Y-81732380D01*
X92324166Y-81065714D02*
X92324166Y-81732380D01*
X92086071Y-80684761D02*
X91847976Y-81399047D01*
X92467023Y-81399047D01*
%TO.C,D15*%
X90895595Y-118562380D02*
X90895595Y-117562380D01*
X91133690Y-117562380D01*
X91276547Y-117610000D01*
X91371785Y-117705238D01*
X91419404Y-117800476D01*
X91467023Y-117990952D01*
X91467023Y-118133809D01*
X91419404Y-118324285D01*
X91371785Y-118419523D01*
X91276547Y-118514761D01*
X91133690Y-118562380D01*
X90895595Y-118562380D01*
X92419404Y-118562380D02*
X91847976Y-118562380D01*
X92133690Y-118562380D02*
X92133690Y-117562380D01*
X92038452Y-117705238D01*
X91943214Y-117800476D01*
X91847976Y-117848095D01*
X93324166Y-117562380D02*
X92847976Y-117562380D01*
X92800357Y-118038571D01*
X92847976Y-117990952D01*
X92943214Y-117943333D01*
X93181309Y-117943333D01*
X93276547Y-117990952D01*
X93324166Y-118038571D01*
X93371785Y-118133809D01*
X93371785Y-118371904D01*
X93324166Y-118467142D01*
X93276547Y-118514761D01*
X93181309Y-118562380D01*
X92943214Y-118562380D01*
X92847976Y-118514761D01*
X92800357Y-118467142D01*
%TO.C,D8*%
X90895595Y-91892380D02*
X90895595Y-90892380D01*
X91133690Y-90892380D01*
X91276547Y-90940000D01*
X91371785Y-91035238D01*
X91419404Y-91130476D01*
X91467023Y-91320952D01*
X91467023Y-91463809D01*
X91419404Y-91654285D01*
X91371785Y-91749523D01*
X91276547Y-91844761D01*
X91133690Y-91892380D01*
X90895595Y-91892380D01*
X92038452Y-91320952D02*
X91943214Y-91273333D01*
X91895595Y-91225714D01*
X91847976Y-91130476D01*
X91847976Y-91082857D01*
X91895595Y-90987619D01*
X91943214Y-90940000D01*
X92038452Y-90892380D01*
X92228928Y-90892380D01*
X92324166Y-90940000D01*
X92371785Y-90987619D01*
X92419404Y-91082857D01*
X92419404Y-91130476D01*
X92371785Y-91225714D01*
X92324166Y-91273333D01*
X92228928Y-91320952D01*
X92038452Y-91320952D01*
X91943214Y-91368571D01*
X91895595Y-91416190D01*
X91847976Y-91511428D01*
X91847976Y-91701904D01*
X91895595Y-91797142D01*
X91943214Y-91844761D01*
X92038452Y-91892380D01*
X92228928Y-91892380D01*
X92324166Y-91844761D01*
X92371785Y-91797142D01*
X92419404Y-91701904D01*
X92419404Y-91511428D01*
X92371785Y-91416190D01*
X92324166Y-91368571D01*
X92228928Y-91320952D01*
%TO.C,D16*%
X90895595Y-121102380D02*
X90895595Y-120102380D01*
X91133690Y-120102380D01*
X91276547Y-120150000D01*
X91371785Y-120245238D01*
X91419404Y-120340476D01*
X91467023Y-120530952D01*
X91467023Y-120673809D01*
X91419404Y-120864285D01*
X91371785Y-120959523D01*
X91276547Y-121054761D01*
X91133690Y-121102380D01*
X90895595Y-121102380D01*
X92419404Y-121102380D02*
X91847976Y-121102380D01*
X92133690Y-121102380D02*
X92133690Y-120102380D01*
X92038452Y-120245238D01*
X91943214Y-120340476D01*
X91847976Y-120388095D01*
X93276547Y-120102380D02*
X93086071Y-120102380D01*
X92990833Y-120150000D01*
X92943214Y-120197619D01*
X92847976Y-120340476D01*
X92800357Y-120530952D01*
X92800357Y-120911904D01*
X92847976Y-121007142D01*
X92895595Y-121054761D01*
X92990833Y-121102380D01*
X93181309Y-121102380D01*
X93276547Y-121054761D01*
X93324166Y-121007142D01*
X93371785Y-120911904D01*
X93371785Y-120673809D01*
X93324166Y-120578571D01*
X93276547Y-120530952D01*
X93181309Y-120483333D01*
X92990833Y-120483333D01*
X92895595Y-120530952D01*
X92847976Y-120578571D01*
X92800357Y-120673809D01*
%TO.C,D9*%
X90895595Y-103322380D02*
X90895595Y-102322380D01*
X91133690Y-102322380D01*
X91276547Y-102370000D01*
X91371785Y-102465238D01*
X91419404Y-102560476D01*
X91467023Y-102750952D01*
X91467023Y-102893809D01*
X91419404Y-103084285D01*
X91371785Y-103179523D01*
X91276547Y-103274761D01*
X91133690Y-103322380D01*
X90895595Y-103322380D01*
X91943214Y-103322380D02*
X92133690Y-103322380D01*
X92228928Y-103274761D01*
X92276547Y-103227142D01*
X92371785Y-103084285D01*
X92419404Y-102893809D01*
X92419404Y-102512857D01*
X92371785Y-102417619D01*
X92324166Y-102370000D01*
X92228928Y-102322380D01*
X92038452Y-102322380D01*
X91943214Y-102370000D01*
X91895595Y-102417619D01*
X91847976Y-102512857D01*
X91847976Y-102750952D01*
X91895595Y-102846190D01*
X91943214Y-102893809D01*
X92038452Y-102941428D01*
X92228928Y-102941428D01*
X92324166Y-102893809D01*
X92371785Y-102846190D01*
X92419404Y-102750952D01*
%TO.C,D3*%
X90895595Y-79192380D02*
X90895595Y-78192380D01*
X91133690Y-78192380D01*
X91276547Y-78240000D01*
X91371785Y-78335238D01*
X91419404Y-78430476D01*
X91467023Y-78620952D01*
X91467023Y-78763809D01*
X91419404Y-78954285D01*
X91371785Y-79049523D01*
X91276547Y-79144761D01*
X91133690Y-79192380D01*
X90895595Y-79192380D01*
X91800357Y-78192380D02*
X92419404Y-78192380D01*
X92086071Y-78573333D01*
X92228928Y-78573333D01*
X92324166Y-78620952D01*
X92371785Y-78668571D01*
X92419404Y-78763809D01*
X92419404Y-79001904D01*
X92371785Y-79097142D01*
X92324166Y-79144761D01*
X92228928Y-79192380D01*
X91943214Y-79192380D01*
X91847976Y-79144761D01*
X91800357Y-79097142D01*
%TO.C,U4*%
X65278095Y-155872380D02*
X65278095Y-156681904D01*
X65325714Y-156777142D01*
X65373333Y-156824761D01*
X65468571Y-156872380D01*
X65659047Y-156872380D01*
X65754285Y-156824761D01*
X65801904Y-156777142D01*
X65849523Y-156681904D01*
X65849523Y-155872380D01*
X66754285Y-156205714D02*
X66754285Y-156872380D01*
X66516190Y-155824761D02*
X66278095Y-156539047D01*
X66897142Y-156539047D01*
%TO.C,U2*%
X65278095Y-68242380D02*
X65278095Y-69051904D01*
X65325714Y-69147142D01*
X65373333Y-69194761D01*
X65468571Y-69242380D01*
X65659047Y-69242380D01*
X65754285Y-69194761D01*
X65801904Y-69147142D01*
X65849523Y-69051904D01*
X65849523Y-68242380D01*
X66278095Y-68337619D02*
X66325714Y-68290000D01*
X66420952Y-68242380D01*
X66659047Y-68242380D01*
X66754285Y-68290000D01*
X66801904Y-68337619D01*
X66849523Y-68432857D01*
X66849523Y-68528095D01*
X66801904Y-68670952D01*
X66230476Y-69242380D01*
X66849523Y-69242380D01*
%TO.C,J3*%
X47941666Y-183392380D02*
X47941666Y-184106666D01*
X47894047Y-184249523D01*
X47798809Y-184344761D01*
X47655952Y-184392380D01*
X47560714Y-184392380D01*
X48322619Y-183392380D02*
X48941666Y-183392380D01*
X48608333Y-183773333D01*
X48751190Y-183773333D01*
X48846428Y-183820952D01*
X48894047Y-183868571D01*
X48941666Y-183963809D01*
X48941666Y-184201904D01*
X48894047Y-184297142D01*
X48846428Y-184344761D01*
X48751190Y-184392380D01*
X48465476Y-184392380D01*
X48370238Y-184344761D01*
X48322619Y-184297142D01*
%TO.C,J2*%
X21246666Y-88082380D02*
X21246666Y-88796666D01*
X21199047Y-88939523D01*
X21103809Y-89034761D01*
X20960952Y-89082380D01*
X20865714Y-89082380D01*
X21675238Y-88177619D02*
X21722857Y-88130000D01*
X21818095Y-88082380D01*
X22056190Y-88082380D01*
X22151428Y-88130000D01*
X22199047Y-88177619D01*
X22246666Y-88272857D01*
X22246666Y-88368095D01*
X22199047Y-88510952D01*
X21627619Y-89082380D01*
X22246666Y-89082380D01*
%TO.C,U5*%
X65278095Y-126662380D02*
X65278095Y-127471904D01*
X65325714Y-127567142D01*
X65373333Y-127614761D01*
X65468571Y-127662380D01*
X65659047Y-127662380D01*
X65754285Y-127614761D01*
X65801904Y-127567142D01*
X65849523Y-127471904D01*
X65849523Y-126662380D01*
X66801904Y-126662380D02*
X66325714Y-126662380D01*
X66278095Y-127138571D01*
X66325714Y-127090952D01*
X66420952Y-127043333D01*
X66659047Y-127043333D01*
X66754285Y-127090952D01*
X66801904Y-127138571D01*
X66849523Y-127233809D01*
X66849523Y-127471904D01*
X66801904Y-127567142D01*
X66754285Y-127614761D01*
X66659047Y-127662380D01*
X66420952Y-127662380D01*
X66325714Y-127614761D01*
X66278095Y-127567142D01*
%TO.C,J1*%
X44117380Y-156543333D02*
X44831666Y-156543333D01*
X44974523Y-156590952D01*
X45069761Y-156686190D01*
X45117380Y-156829047D01*
X45117380Y-156924285D01*
X45117380Y-155543333D02*
X45117380Y-156114761D01*
X45117380Y-155829047D02*
X44117380Y-155829047D01*
X44260238Y-155924285D01*
X44355476Y-156019523D01*
X44403095Y-156114761D01*
%TO.C,U3*%
X65278095Y-97452380D02*
X65278095Y-98261904D01*
X65325714Y-98357142D01*
X65373333Y-98404761D01*
X65468571Y-98452380D01*
X65659047Y-98452380D01*
X65754285Y-98404761D01*
X65801904Y-98357142D01*
X65849523Y-98261904D01*
X65849523Y-97452380D01*
X66230476Y-97452380D02*
X66849523Y-97452380D01*
X66516190Y-97833333D01*
X66659047Y-97833333D01*
X66754285Y-97880952D01*
X66801904Y-97928571D01*
X66849523Y-98023809D01*
X66849523Y-98261904D01*
X66801904Y-98357142D01*
X66754285Y-98404761D01*
X66659047Y-98452380D01*
X66373333Y-98452380D01*
X66278095Y-98404761D01*
X66230476Y-98357142D01*
D12*
%TO.C,D7*%
X90560000Y-89635000D02*
X90560000Y-88165000D01*
X88100000Y-89635000D02*
X90560000Y-89635000D01*
X90560000Y-88165000D02*
X88100000Y-88165000D01*
%TO.C,D10*%
X90560000Y-106145000D02*
X90560000Y-104675000D01*
X88100000Y-106145000D02*
X90560000Y-106145000D01*
X90560000Y-104675000D02*
X88100000Y-104675000D01*
%TO.C,D13*%
X90560000Y-113765000D02*
X90560000Y-112295000D01*
X88100000Y-113765000D02*
X90560000Y-113765000D01*
X90560000Y-112295000D02*
X88100000Y-112295000D01*
%TO.C,D6*%
X90560000Y-87095000D02*
X90560000Y-85625000D01*
X88100000Y-87095000D02*
X90560000Y-87095000D01*
X90560000Y-85625000D02*
X88100000Y-85625000D01*
%TO.C,D12*%
X90560000Y-111225000D02*
X90560000Y-109755000D01*
X88100000Y-111225000D02*
X90560000Y-111225000D01*
X90560000Y-109755000D02*
X88100000Y-109755000D01*
%TO.C,D11*%
X90560000Y-108685000D02*
X90560000Y-107215000D01*
X88100000Y-108685000D02*
X90560000Y-108685000D01*
X90560000Y-107215000D02*
X88100000Y-107215000D01*
%TO.C,D5*%
X90560000Y-84555000D02*
X90560000Y-83085000D01*
X88100000Y-84555000D02*
X90560000Y-84555000D01*
X90560000Y-83085000D02*
X88100000Y-83085000D01*
%TO.C,D1*%
X90560000Y-74395000D02*
X90560000Y-72925000D01*
X88100000Y-74395000D02*
X90560000Y-74395000D01*
X90560000Y-72925000D02*
X88100000Y-72925000D01*
%TO.C,D2*%
X90560000Y-76935000D02*
X90560000Y-75465000D01*
X88100000Y-76935000D02*
X90560000Y-76935000D01*
X90560000Y-75465000D02*
X88100000Y-75465000D01*
%TO.C,D14*%
X90560000Y-116305000D02*
X90560000Y-114835000D01*
X88100000Y-116305000D02*
X90560000Y-116305000D01*
X90560000Y-114835000D02*
X88100000Y-114835000D01*
%TO.C,D4*%
X90560000Y-82015000D02*
X90560000Y-80545000D01*
X88100000Y-82015000D02*
X90560000Y-82015000D01*
X90560000Y-80545000D02*
X88100000Y-80545000D01*
%TO.C,D15*%
X90560000Y-118845000D02*
X90560000Y-117375000D01*
X88100000Y-118845000D02*
X90560000Y-118845000D01*
X90560000Y-117375000D02*
X88100000Y-117375000D01*
%TO.C,D8*%
X90560000Y-92175000D02*
X90560000Y-90705000D01*
X88100000Y-92175000D02*
X90560000Y-92175000D01*
X90560000Y-90705000D02*
X88100000Y-90705000D01*
%TO.C,D16*%
X90560000Y-121385000D02*
X90560000Y-119915000D01*
X88100000Y-121385000D02*
X90560000Y-121385000D01*
X90560000Y-119915000D02*
X88100000Y-119915000D01*
%TO.C,D9*%
X90560000Y-103605000D02*
X90560000Y-102135000D01*
X88100000Y-103605000D02*
X90560000Y-103605000D01*
X90560000Y-102135000D02*
X88100000Y-102135000D01*
%TO.C,D3*%
X90560000Y-79475000D02*
X90560000Y-78005000D01*
X88100000Y-79475000D02*
X90560000Y-79475000D01*
X90560000Y-78005000D02*
X88100000Y-78005000D01*
%TO.C,U4*%
X60790000Y-183000000D02*
X71290000Y-183000000D01*
X65040000Y-157420000D02*
X63790000Y-157420000D01*
X63790000Y-182940000D02*
X68290000Y-182940000D01*
X68290000Y-182940000D02*
X68290000Y-157420000D01*
X71290000Y-183000000D02*
X71290000Y-157360000D01*
X68290000Y-157420000D02*
X67040000Y-157420000D01*
X71290000Y-157360000D02*
X60790000Y-157360000D01*
X60790000Y-157360000D02*
X60790000Y-183000000D01*
X63790000Y-157420000D02*
X63790000Y-182940000D01*
X65040000Y-157420000D02*
G75*
G03*
X67040000Y-157420000I1000000J0D01*
G01*
%TO.C,U2*%
X68290000Y-69790000D02*
X67040000Y-69790000D01*
X71290000Y-95370000D02*
X71290000Y-69730000D01*
X63790000Y-95310000D02*
X68290000Y-95310000D01*
X71290000Y-69730000D02*
X60790000Y-69730000D01*
X60790000Y-95370000D02*
X71290000Y-95370000D01*
X63790000Y-69790000D02*
X63790000Y-95310000D01*
X68290000Y-95310000D02*
X68290000Y-69790000D01*
X60790000Y-69730000D02*
X60790000Y-95370000D01*
X65040000Y-69790000D02*
X63790000Y-69790000D01*
X65040000Y-69790000D02*
G75*
G03*
X67040000Y-69790000I1000000J0D01*
G01*
%TO.C,J3*%
X50525000Y-182940000D02*
X50525000Y-165040000D01*
X50525000Y-165040000D02*
X46025000Y-165040000D01*
X49275000Y-182940000D02*
X50525000Y-182940000D01*
X46025000Y-182940000D02*
X47275000Y-182940000D01*
X46025000Y-165040000D02*
X46025000Y-182940000D01*
X49275000Y-182940000D02*
G75*
G03*
X47275000Y-182940000I-1000000J0D01*
G01*
%TO.C,J2*%
X15865000Y-47880000D02*
X21865000Y-47880000D01*
X15865000Y-48640000D02*
X15865000Y-47880000D01*
X24525000Y-59690000D02*
X21865000Y-59690000D01*
X21865000Y-86080000D02*
X15865000Y-86080000D01*
X24922071Y-51180000D02*
X24525000Y-51180000D01*
X21865000Y-51180000D02*
X15865000Y-51180000D01*
X15865000Y-78360000D02*
X21865000Y-78360000D01*
X24922071Y-74040000D02*
X24525000Y-74040000D01*
X21865000Y-86200000D02*
X15865000Y-86200000D01*
X15865000Y-58800000D02*
X15865000Y-58040000D01*
X21865000Y-74040000D02*
X15865000Y-74040000D01*
X21865000Y-86680000D02*
X15865000Y-86680000D01*
X24922071Y-56260000D02*
X24525000Y-56260000D01*
X24922071Y-80900000D02*
X24525000Y-80900000D01*
X21865000Y-86740000D02*
X15865000Y-86740000D01*
X15865000Y-86740000D02*
X15865000Y-85980000D01*
X24922071Y-70740000D02*
X24525000Y-70740000D01*
X24922071Y-76580000D02*
X24525000Y-76580000D01*
X21865000Y-46930000D02*
X21865000Y-87690000D01*
X27235000Y-87630000D02*
X25965000Y-87630000D01*
X15865000Y-63880000D02*
X15865000Y-63120000D01*
X24922071Y-65660000D02*
X24525000Y-65660000D01*
X21865000Y-66420000D02*
X15865000Y-66420000D01*
X24922071Y-83440000D02*
X24525000Y-83440000D01*
X15865000Y-65660000D02*
X21865000Y-65660000D01*
X15865000Y-56260000D02*
X15865000Y-55500000D01*
X15865000Y-55500000D02*
X21865000Y-55500000D01*
X21865000Y-61340000D02*
X15865000Y-61340000D01*
X15865000Y-79120000D02*
X15865000Y-78360000D01*
X24525000Y-62230000D02*
X21865000Y-62230000D01*
X24525000Y-67310000D02*
X21865000Y-67310000D01*
X24922071Y-55500000D02*
X24525000Y-55500000D01*
X21865000Y-76580000D02*
X15865000Y-76580000D01*
X24855000Y-85980000D02*
X24525000Y-85980000D01*
X21865000Y-86320000D02*
X15865000Y-86320000D01*
X24922071Y-60580000D02*
X24525000Y-60580000D01*
X24922071Y-84200000D02*
X24525000Y-84200000D01*
X15865000Y-61340000D02*
X15865000Y-60580000D01*
X24525000Y-54610000D02*
X21865000Y-54610000D01*
X21865000Y-71500000D02*
X15865000Y-71500000D01*
X15865000Y-80900000D02*
X21865000Y-80900000D01*
X21865000Y-86440000D02*
X15865000Y-86440000D01*
X24525000Y-85090000D02*
X21865000Y-85090000D01*
X24525000Y-69850000D02*
X21865000Y-69850000D01*
X15865000Y-60580000D02*
X21865000Y-60580000D01*
X24922071Y-71500000D02*
X24525000Y-71500000D01*
X24922071Y-75820000D02*
X24525000Y-75820000D01*
X24525000Y-87690000D02*
X24525000Y-46930000D01*
X15865000Y-58040000D02*
X21865000Y-58040000D01*
X15865000Y-68200000D02*
X21865000Y-68200000D01*
X21865000Y-56260000D02*
X15865000Y-56260000D01*
X21865000Y-53720000D02*
X15865000Y-53720000D01*
X24525000Y-74930000D02*
X21865000Y-74930000D01*
X15865000Y-66420000D02*
X15865000Y-65660000D01*
X15865000Y-52960000D02*
X21865000Y-52960000D01*
X15865000Y-53720000D02*
X15865000Y-52960000D01*
X15865000Y-50420000D02*
X21865000Y-50420000D01*
X24922071Y-81660000D02*
X24525000Y-81660000D01*
X15865000Y-68960000D02*
X15865000Y-68200000D01*
X24922071Y-58040000D02*
X24525000Y-58040000D01*
X21865000Y-48640000D02*
X15865000Y-48640000D01*
X24922071Y-78360000D02*
X24525000Y-78360000D01*
X24922071Y-50420000D02*
X24525000Y-50420000D01*
X24525000Y-57150000D02*
X21865000Y-57150000D01*
X21865000Y-84200000D02*
X15865000Y-84200000D01*
X21865000Y-63880000D02*
X15865000Y-63880000D01*
X15865000Y-83440000D02*
X21865000Y-83440000D01*
X24922071Y-48640000D02*
X24525000Y-48640000D01*
X24525000Y-46930000D02*
X21865000Y-46930000D01*
X24922071Y-66420000D02*
X24525000Y-66420000D01*
X15865000Y-71500000D02*
X15865000Y-70740000D01*
X15865000Y-73280000D02*
X21865000Y-73280000D01*
X24922071Y-53720000D02*
X24525000Y-53720000D01*
X15865000Y-81660000D02*
X15865000Y-80900000D01*
X24922071Y-68200000D02*
X24525000Y-68200000D01*
X15865000Y-63120000D02*
X21865000Y-63120000D01*
X21865000Y-68960000D02*
X15865000Y-68960000D01*
X24922071Y-63880000D02*
X24525000Y-63880000D01*
X24525000Y-52070000D02*
X21865000Y-52070000D01*
X21865000Y-81660000D02*
X15865000Y-81660000D01*
X24525000Y-80010000D02*
X21865000Y-80010000D01*
X15865000Y-75820000D02*
X21865000Y-75820000D01*
X21865000Y-87690000D02*
X24525000Y-87690000D01*
X24855000Y-86740000D02*
X24525000Y-86740000D01*
X21865000Y-58800000D02*
X15865000Y-58800000D01*
X15865000Y-70740000D02*
X21865000Y-70740000D01*
X24922071Y-52960000D02*
X24525000Y-52960000D01*
X21865000Y-86560000D02*
X15865000Y-86560000D01*
X24922071Y-47880000D02*
X24525000Y-47880000D01*
X15865000Y-84200000D02*
X15865000Y-83440000D01*
X24922071Y-58800000D02*
X24525000Y-58800000D01*
X15865000Y-76580000D02*
X15865000Y-75820000D01*
X24525000Y-64770000D02*
X21865000Y-64770000D01*
X24525000Y-72390000D02*
X21865000Y-72390000D01*
X24922071Y-61340000D02*
X24525000Y-61340000D01*
X27235000Y-86360000D02*
X27235000Y-87630000D01*
X24922071Y-68960000D02*
X24525000Y-68960000D01*
X21865000Y-79120000D02*
X15865000Y-79120000D01*
X15865000Y-74040000D02*
X15865000Y-73280000D01*
X15865000Y-51180000D02*
X15865000Y-50420000D01*
X15865000Y-85980000D02*
X21865000Y-85980000D01*
X24922071Y-73280000D02*
X24525000Y-73280000D01*
X24525000Y-49530000D02*
X21865000Y-49530000D01*
X24525000Y-77470000D02*
X21865000Y-77470000D01*
X24525000Y-82550000D02*
X21865000Y-82550000D01*
X24922071Y-63120000D02*
X24525000Y-63120000D01*
X24922071Y-79120000D02*
X24525000Y-79120000D01*
%TO.C,U5*%
X63790000Y-153730000D02*
X68290000Y-153730000D01*
X68290000Y-153730000D02*
X68290000Y-128210000D01*
X65040000Y-128210000D02*
X63790000Y-128210000D01*
X63790000Y-128210000D02*
X63790000Y-153730000D01*
X71290000Y-153790000D02*
X71290000Y-128150000D01*
X60790000Y-128150000D02*
X60790000Y-153790000D01*
X68290000Y-128210000D02*
X67040000Y-128210000D01*
X71290000Y-128150000D02*
X60790000Y-128150000D01*
X60790000Y-153790000D02*
X71290000Y-153790000D01*
X65040000Y-128210000D02*
G75*
G03*
X67040000Y-128210000I1000000J0D01*
G01*
%TO.C,J1*%
X58485000Y-157540000D02*
X58485000Y-154880000D01*
X48265000Y-154880000D02*
X58485000Y-154880000D01*
X48265000Y-157540000D02*
X48265000Y-154880000D01*
X48265000Y-157540000D02*
X58485000Y-157540000D01*
X45665000Y-157540000D02*
X45665000Y-156210000D01*
X46995000Y-157540000D02*
X45665000Y-157540000D01*
%TO.C,U3*%
X63790000Y-124520000D02*
X68290000Y-124520000D01*
X68290000Y-99000000D02*
X67040000Y-99000000D01*
X68290000Y-124520000D02*
X68290000Y-99000000D01*
X71290000Y-98940000D02*
X60790000Y-98940000D01*
X63790000Y-99000000D02*
X63790000Y-124520000D01*
X60790000Y-98940000D02*
X60790000Y-124580000D01*
X65040000Y-99000000D02*
X63790000Y-99000000D01*
X60790000Y-124580000D02*
X71290000Y-124580000D01*
X71290000Y-124580000D02*
X71290000Y-98940000D01*
X65040000Y-99000000D02*
G75*
G03*
X67040000Y-99000000I1000000J0D01*
G01*
%TD*%
M02*
