%TF.GenerationSoftware,KiCad,Pcbnew,6.0.8-1.fc36*%
%TF.CreationDate,2022-10-27T22:21:33-04:00*%
%TF.ProjectId,16bit_computer,31366269-745f-4636-9f6d-70757465722e,rev?*%
%TF.SameCoordinates,Original*%
%TF.FileFunction,Copper,L1,Top*%
%TF.FilePolarity,Positive*%
%FSLAX46Y46*%
G04 Gerber Fmt 4.6, Leading zero omitted, Abs format (unit mm)*
G04 Created by KiCad (PCBNEW 6.0.8-1.fc36) date 2022-10-27 22:21:33*
%MOMM*%
%LPD*%
G01*
G04 APERTURE LIST*
G04 Aperture macros list*
%AMRoundRect*
0 Rectangle with rounded corners*
0 $1 Rounding radius*
0 $2 $3 $4 $5 $6 $7 $8 $9 X,Y pos of 4 corners*
0 Add a 4 corners polygon primitive as box body*
4,1,4,$2,$3,$4,$5,$6,$7,$8,$9,$2,$3,0*
0 Add four circle primitives for the rounded corners*
1,1,$1+$1,$2,$3*
1,1,$1+$1,$4,$5*
1,1,$1+$1,$6,$7*
1,1,$1+$1,$8,$9*
0 Add four rect primitives between the rounded corners*
20,1,$1+$1,$2,$3,$4,$5,0*
20,1,$1+$1,$4,$5,$6,$7,0*
20,1,$1+$1,$6,$7,$8,$9,0*
20,1,$1+$1,$8,$9,$2,$3,0*%
G04 Aperture macros list end*
%TA.AperFunction,SMDPad,CuDef*%
%ADD10RoundRect,0.237500X0.287500X0.237500X-0.287500X0.237500X-0.287500X-0.237500X0.287500X-0.237500X0*%
%TD*%
%TA.AperFunction,ComponentPad*%
%ADD11R,2.400000X1.600000*%
%TD*%
%TA.AperFunction,ComponentPad*%
%ADD12O,2.400000X1.600000*%
%TD*%
%TA.AperFunction,ComponentPad*%
%ADD13R,1.700000X1.700000*%
%TD*%
%TA.AperFunction,ComponentPad*%
%ADD14O,1.700000X1.700000*%
%TD*%
%TA.AperFunction,ViaPad*%
%ADD15C,0.800000*%
%TD*%
%TA.AperFunction,Conductor*%
%ADD16C,0.250000*%
%TD*%
G04 APERTURE END LIST*
D10*
%TO.P,D7,1,K*%
%TO.N,Vss*%
X89775000Y-88900000D03*
%TO.P,D7,2,A*%
%TO.N,Net-(D7-Pad2)*%
X88025000Y-88900000D03*
%TD*%
%TO.P,D10,1,K*%
%TO.N,Vss*%
X89775000Y-105410000D03*
%TO.P,D10,2,A*%
%TO.N,Net-(D10-Pad2)*%
X88025000Y-105410000D03*
%TD*%
%TO.P,D13,1,K*%
%TO.N,Vss*%
X89775000Y-113030000D03*
%TO.P,D13,2,A*%
%TO.N,Net-(D13-Pad2)*%
X88025000Y-113030000D03*
%TD*%
%TO.P,D6,1,K*%
%TO.N,Vss*%
X89775000Y-86360000D03*
%TO.P,D6,2,A*%
%TO.N,Net-(D6-Pad2)*%
X88025000Y-86360000D03*
%TD*%
%TO.P,D12,1,K*%
%TO.N,Vss*%
X89775000Y-110490000D03*
%TO.P,D12,2,A*%
%TO.N,Net-(D12-Pad2)*%
X88025000Y-110490000D03*
%TD*%
%TO.P,D11,1,K*%
%TO.N,Vss*%
X89775000Y-107950000D03*
%TO.P,D11,2,A*%
%TO.N,Net-(D11-Pad2)*%
X88025000Y-107950000D03*
%TD*%
%TO.P,D5,1,K*%
%TO.N,Vss*%
X89775000Y-83820000D03*
%TO.P,D5,2,A*%
%TO.N,Net-(D5-Pad2)*%
X88025000Y-83820000D03*
%TD*%
%TO.P,D1,1,K*%
%TO.N,Vss*%
X89775000Y-73660000D03*
%TO.P,D1,2,A*%
%TO.N,Net-(D1-Pad2)*%
X88025000Y-73660000D03*
%TD*%
%TO.P,D2,1,K*%
%TO.N,Vss*%
X89775000Y-76200000D03*
%TO.P,D2,2,A*%
%TO.N,Net-(D2-Pad2)*%
X88025000Y-76200000D03*
%TD*%
%TO.P,D14,1,K*%
%TO.N,Vss*%
X89775000Y-115570000D03*
%TO.P,D14,2,A*%
%TO.N,Net-(D14-Pad2)*%
X88025000Y-115570000D03*
%TD*%
%TO.P,D4,1,K*%
%TO.N,Vss*%
X89775000Y-81280000D03*
%TO.P,D4,2,A*%
%TO.N,Net-(D4-Pad2)*%
X88025000Y-81280000D03*
%TD*%
%TO.P,D15,1,K*%
%TO.N,Vss*%
X89775000Y-118110000D03*
%TO.P,D15,2,A*%
%TO.N,Net-(D15-Pad2)*%
X88025000Y-118110000D03*
%TD*%
%TO.P,D8,1,K*%
%TO.N,Vss*%
X89775000Y-91440000D03*
%TO.P,D8,2,A*%
%TO.N,Net-(D8-Pad2)*%
X88025000Y-91440000D03*
%TD*%
%TO.P,D16,1,K*%
%TO.N,Vss*%
X89775000Y-120650000D03*
%TO.P,D16,2,A*%
%TO.N,Net-(D16-Pad2)*%
X88025000Y-120650000D03*
%TD*%
%TO.P,D9,1,K*%
%TO.N,Vss*%
X89775000Y-102870000D03*
%TO.P,D9,2,A*%
%TO.N,Net-(D9-Pad2)*%
X88025000Y-102870000D03*
%TD*%
%TO.P,D3,1,K*%
%TO.N,Vss*%
X89775000Y-78740000D03*
%TO.P,D3,2,A*%
%TO.N,Net-(D3-Pad2)*%
X88025000Y-78740000D03*
%TD*%
D11*
%TO.P,U4,1,Dir*%
%TO.N,Vss*%
X62230000Y-158750000D03*
D12*
%TO.P,U4,2*%
%TO.N,/16*%
X62230000Y-161290000D03*
%TO.P,U4,3*%
%TO.N,/14*%
X62230000Y-163830000D03*
%TO.P,U4,4*%
%TO.N,/12*%
X62230000Y-166370000D03*
%TO.P,U4,5*%
%TO.N,/9*%
X62230000Y-168910000D03*
%TO.P,U4,6*%
%TO.N,/8*%
X62230000Y-171450000D03*
%TO.P,U4,7*%
%TO.N,/6*%
X62230000Y-173990000D03*
%TO.P,U4,8*%
%TO.N,/4*%
X62230000Y-176530000D03*
%TO.P,U4,9*%
%TO.N,/1*%
X62230000Y-179070000D03*
%TO.P,U4,10,Vss*%
%TO.N,Vss*%
X62230000Y-181610000D03*
%TO.P,U4,11*%
%TO.N,Net-(D1-Pad2)*%
X69850000Y-181610000D03*
%TO.P,U4,12*%
%TO.N,Net-(D4-Pad2)*%
X69850000Y-179070000D03*
%TO.P,U4,13*%
%TO.N,Net-(D6-Pad2)*%
X69850000Y-176530000D03*
%TO.P,U4,14*%
%TO.N,Net-(D8-Pad2)*%
X69850000Y-173990000D03*
%TO.P,U4,15*%
%TO.N,Net-(D9-Pad2)*%
X69850000Y-171450000D03*
%TO.P,U4,16*%
%TO.N,Net-(D12-Pad2)*%
X69850000Y-168910000D03*
%TO.P,U4,17*%
%TO.N,Net-(D14-Pad2)*%
X69850000Y-166370000D03*
%TO.P,U4,18*%
%TO.N,Net-(D16-Pad2)*%
X69850000Y-163830000D03*
%TO.P,U4,19,~{G}*%
%TO.N,/~{ENABLE}*%
X69850000Y-161290000D03*
%TO.P,U4,20,Vdd*%
%TO.N,Vdd*%
X69850000Y-158750000D03*
%TD*%
D11*
%TO.P,U2,1,~{E}*%
%TO.N,Vdd*%
X62230000Y-71120000D03*
D12*
%TO.P,U2,2*%
%TO.N,Net-(D2-Pad2)*%
X62230000Y-73660000D03*
%TO.P,U2,3*%
%TO.N,/2*%
X62230000Y-76200000D03*
%TO.P,U2,4*%
%TO.N,/3*%
X62230000Y-78740000D03*
%TO.P,U2,5*%
%TO.N,Net-(D3-Pad2)*%
X62230000Y-81280000D03*
%TO.P,U2,6*%
%TO.N,Net-(D5-Pad2)*%
X62230000Y-83820000D03*
%TO.P,U2,7*%
%TO.N,/5*%
X62230000Y-86360000D03*
%TO.P,U2,8*%
%TO.N,/7*%
X62230000Y-88900000D03*
%TO.P,U2,9*%
%TO.N,Net-(D7-Pad2)*%
X62230000Y-91440000D03*
%TO.P,U2,10,Vss*%
%TO.N,Vss*%
X62230000Y-93980000D03*
%TO.P,U2,11,Ck*%
%TO.N,Net-(J3-Pad6)*%
X69850000Y-93980000D03*
%TO.P,U2,12*%
%TO.N,Net-(D8-Pad2)*%
X69850000Y-91440000D03*
%TO.P,U2,13*%
%TO.N,/8*%
X69850000Y-88900000D03*
%TO.P,U2,14*%
%TO.N,/6*%
X69850000Y-86360000D03*
%TO.P,U2,15*%
%TO.N,Net-(D6-Pad2)*%
X69850000Y-83820000D03*
%TO.P,U2,16*%
%TO.N,Net-(D4-Pad2)*%
X69850000Y-81280000D03*
%TO.P,U2,17*%
%TO.N,/4*%
X69850000Y-78740000D03*
%TO.P,U2,18*%
%TO.N,/1*%
X69850000Y-76200000D03*
%TO.P,U2,19*%
%TO.N,Net-(D1-Pad2)*%
X69850000Y-73660000D03*
%TO.P,U2,20,Vdd*%
%TO.N,Vdd*%
X69850000Y-71120000D03*
%TD*%
D11*
%TO.P,J3,1,Pin_1*%
%TO.N,unconnected-(J3-Pad1)*%
X52085000Y-181610000D03*
D12*
%TO.P,J3,2,Pin_2*%
%TO.N,unconnected-(J3-Pad2)*%
X52085000Y-179070000D03*
%TO.P,J3,3,Pin_3*%
%TO.N,unconnected-(J3-Pad3)*%
X52085000Y-176530000D03*
%TO.P,J3,4,Pin_4*%
%TO.N,/CLK*%
X52085000Y-173990000D03*
%TO.P,J3,5,Pin_5*%
%TO.N,/LOAD*%
X52085000Y-171450000D03*
%TO.P,J3,6,Pin_6*%
%TO.N,Net-(J3-Pad6)*%
X52085000Y-168910000D03*
%TO.P,J3,7,Pin_7*%
%TO.N,Vss*%
X52085000Y-166370000D03*
%TO.P,J3,8,Pin_8*%
%TO.N,unconnected-(J3-Pad8)*%
X44465000Y-166370000D03*
%TO.P,J3,9,Pin_9*%
%TO.N,unconnected-(J3-Pad9)*%
X44465000Y-168910000D03*
%TO.P,J3,10,Pin_10*%
%TO.N,unconnected-(J3-Pad10)*%
X44465000Y-171450000D03*
%TO.P,J3,11,Pin_11*%
%TO.N,unconnected-(J3-Pad11)*%
X44465000Y-173990000D03*
%TO.P,J3,12,Pin_12*%
%TO.N,unconnected-(J3-Pad12)*%
X44465000Y-176530000D03*
%TO.P,J3,13,Pin_13*%
%TO.N,unconnected-(J3-Pad13)*%
X44465000Y-179070000D03*
%TO.P,J3,14,Pin_14*%
%TO.N,Vdd*%
X44465000Y-181610000D03*
%TD*%
D13*
%TO.P,J2,1,Pin_1*%
%TO.N,/1*%
X25965000Y-86360000D03*
D14*
%TO.P,J2,2,Pin_2*%
%TO.N,/2*%
X25965000Y-83820000D03*
%TO.P,J2,3,Pin_3*%
%TO.N,/3*%
X25965000Y-81280000D03*
%TO.P,J2,4,Pin_4*%
%TO.N,/4*%
X25965000Y-78740000D03*
%TO.P,J2,5,Pin_5*%
%TO.N,/5*%
X25965000Y-76200000D03*
%TO.P,J2,6,Pin_6*%
%TO.N,/6*%
X25965000Y-73660000D03*
%TO.P,J2,7,Pin_7*%
%TO.N,/7*%
X25965000Y-71120000D03*
%TO.P,J2,8,Pin_8*%
%TO.N,/8*%
X25965000Y-68580000D03*
%TO.P,J2,9,Pin_9*%
%TO.N,/9*%
X25965000Y-66040000D03*
%TO.P,J2,10,Pin_10*%
%TO.N,/10*%
X25965000Y-63500000D03*
%TO.P,J2,11,Pin_11*%
%TO.N,/11*%
X25965000Y-60960000D03*
%TO.P,J2,12,Pin_12*%
%TO.N,/12*%
X25965000Y-58420000D03*
%TO.P,J2,13,Pin_13*%
%TO.N,/13*%
X25965000Y-55880000D03*
%TO.P,J2,14,Pin_14*%
%TO.N,/14*%
X25965000Y-53340000D03*
%TO.P,J2,15,Pin_15*%
%TO.N,/15*%
X25965000Y-50800000D03*
%TO.P,J2,16,Pin_16*%
%TO.N,/16*%
X25965000Y-48260000D03*
%TD*%
D11*
%TO.P,U5,1,Dir*%
%TO.N,Vdd*%
X62230000Y-129540000D03*
D12*
%TO.P,U5,2*%
%TO.N,Net-(D15-Pad2)*%
X62230000Y-132080000D03*
%TO.P,U5,3*%
%TO.N,Net-(D13-Pad2)*%
X62230000Y-134620000D03*
%TO.P,U5,4*%
%TO.N,Net-(D11-Pad2)*%
X62230000Y-137160000D03*
%TO.P,U5,5*%
%TO.N,Net-(D10-Pad2)*%
X62230000Y-139700000D03*
%TO.P,U5,6*%
%TO.N,Net-(D7-Pad2)*%
X62230000Y-142240000D03*
%TO.P,U5,7*%
%TO.N,Net-(D5-Pad2)*%
X62230000Y-144780000D03*
%TO.P,U5,8*%
%TO.N,Net-(D3-Pad2)*%
X62230000Y-147320000D03*
%TO.P,U5,9*%
%TO.N,Net-(D2-Pad2)*%
X62230000Y-149860000D03*
%TO.P,U5,10,Vss*%
%TO.N,Vss*%
X62230000Y-152400000D03*
%TO.P,U5,11*%
%TO.N,/2*%
X69850000Y-152400000D03*
%TO.P,U5,12*%
%TO.N,/3*%
X69850000Y-149860000D03*
%TO.P,U5,13*%
%TO.N,/5*%
X69850000Y-147320000D03*
%TO.P,U5,14*%
%TO.N,/7*%
X69850000Y-144780000D03*
%TO.P,U5,15*%
%TO.N,/10*%
X69850000Y-142240000D03*
%TO.P,U5,16*%
%TO.N,/11*%
X69850000Y-139700000D03*
%TO.P,U5,17*%
%TO.N,/13*%
X69850000Y-137160000D03*
%TO.P,U5,18*%
%TO.N,/15*%
X69850000Y-134620000D03*
%TO.P,U5,19,~{G}*%
%TO.N,/~{ENABLE}*%
X69850000Y-132080000D03*
%TO.P,U5,20,Vdd*%
%TO.N,Vdd*%
X69850000Y-129540000D03*
%TD*%
D13*
%TO.P,J1,1,Pin_1*%
%TO.N,/CLK*%
X46995000Y-156210000D03*
D14*
%TO.P,J1,2,Pin_2*%
%TO.N,/LOAD*%
X49535000Y-156210000D03*
%TO.P,J1,3,Pin_3*%
%TO.N,/~{ENABLE}*%
X52075000Y-156210000D03*
%TO.P,J1,4,Pin_4*%
%TO.N,Vdd*%
X54615000Y-156210000D03*
%TO.P,J1,5,Pin_5*%
%TO.N,Vss*%
X57155000Y-156210000D03*
%TD*%
D11*
%TO.P,U3,1,~{E}*%
%TO.N,Vdd*%
X62230000Y-100330000D03*
D12*
%TO.P,U3,2*%
%TO.N,Net-(D10-Pad2)*%
X62230000Y-102870000D03*
%TO.P,U3,3*%
%TO.N,/10*%
X62230000Y-105410000D03*
%TO.P,U3,4*%
%TO.N,/11*%
X62230000Y-107950000D03*
%TO.P,U3,5*%
%TO.N,Net-(D11-Pad2)*%
X62230000Y-110490000D03*
%TO.P,U3,6*%
%TO.N,Net-(D13-Pad2)*%
X62230000Y-113030000D03*
%TO.P,U3,7*%
%TO.N,/13*%
X62230000Y-115570000D03*
%TO.P,U3,8*%
%TO.N,/15*%
X62230000Y-118110000D03*
%TO.P,U3,9*%
%TO.N,Net-(D15-Pad2)*%
X62230000Y-120650000D03*
%TO.P,U3,10,Vss*%
%TO.N,Vss*%
X62230000Y-123190000D03*
%TO.P,U3,11,Ck*%
%TO.N,Net-(J3-Pad6)*%
X69850000Y-123190000D03*
%TO.P,U3,12*%
%TO.N,Net-(D16-Pad2)*%
X69850000Y-120650000D03*
%TO.P,U3,13*%
%TO.N,/16*%
X69850000Y-118110000D03*
%TO.P,U3,14*%
%TO.N,/14*%
X69850000Y-115570000D03*
%TO.P,U3,15*%
%TO.N,Net-(D14-Pad2)*%
X69850000Y-113030000D03*
%TO.P,U3,16*%
%TO.N,Net-(D12-Pad2)*%
X69850000Y-110490000D03*
%TO.P,U3,17*%
%TO.N,/12*%
X69850000Y-107950000D03*
%TO.P,U3,18*%
%TO.N,/9*%
X69850000Y-105410000D03*
%TO.P,U3,19*%
%TO.N,Net-(D9-Pad2)*%
X69850000Y-102870000D03*
%TO.P,U3,20,Vdd*%
%TO.N,Vdd*%
X69850000Y-100330000D03*
%TD*%
D15*
%TO.N,/2*%
X54610000Y-66040000D03*
%TO.N,/3*%
X53340000Y-64770000D03*
%TO.N,/5*%
X52070000Y-62230000D03*
%TO.N,/7*%
X50800000Y-59690000D03*
%TO.N,/10*%
X49530000Y-55880000D03*
%TO.N,/11*%
X48260000Y-54610000D03*
%TO.N,/13*%
X46990000Y-52070000D03*
%TO.N,/15*%
X45720000Y-49530000D03*
%TO.N,/1*%
X77470000Y-67310000D03*
%TO.N,/9*%
X82540000Y-57160000D03*
%TO.N,/12*%
X83820000Y-53340000D03*
%TO.N,/14*%
X85090000Y-50800000D03*
%TO.N,/16*%
X86360000Y-48260000D03*
%TO.N,/4*%
X78740000Y-63500000D03*
%TO.N,/6*%
X80010000Y-60960000D03*
%TO.N,/8*%
X81280000Y-58420000D03*
%TO.N,/10*%
X49520000Y-105405000D03*
X49520000Y-140965000D03*
%TO.N,/11*%
X48260000Y-138430000D03*
X48255000Y-107950000D03*
%TO.N,/13*%
X46990000Y-135890000D03*
X46980000Y-115565000D03*
%TO.N,/15*%
X45720000Y-133350000D03*
X45710000Y-118105000D03*
%TO.N,/2*%
X54600000Y-76195000D03*
X54600000Y-151125000D03*
%TO.N,/3*%
X53330000Y-78735000D03*
X53330000Y-148585000D03*
%TO.N,/5*%
X52060000Y-146045000D03*
X52060000Y-86355000D03*
%TO.N,/7*%
X50790000Y-143505000D03*
X50790000Y-88895000D03*
%TO.N,/8*%
X81270000Y-88895000D03*
%TO.N,/6*%
X80000000Y-86355000D03*
%TO.N,/4*%
X78730000Y-78735000D03*
%TO.N,/1*%
X77460000Y-76195000D03*
%TO.N,/16*%
X86350000Y-118105000D03*
%TO.N,/14*%
X85080000Y-115565000D03*
%TO.N,/12*%
X83810000Y-107945000D03*
%TO.N,/9*%
X82540000Y-105405000D03*
%TO.N,Vss*%
X64770000Y-123190000D03*
X64770000Y-133350000D03*
X64770000Y-97790000D03*
%TO.N,Net-(J3-Pad6)*%
X67310000Y-97790000D03*
%TD*%
D16*
%TO.N,/13*%
X25965000Y-55880000D02*
X29775000Y-52070000D01*
X29775000Y-52070000D02*
X147320000Y-52070000D01*
%TO.N,/3*%
X52070000Y-64770000D02*
X53340000Y-64770000D01*
X53340000Y-64770000D02*
X147320000Y-64770000D01*
%TO.N,/5*%
X39935000Y-62230000D02*
X52070000Y-62230000D01*
X52070000Y-62230000D02*
X147320000Y-62230000D01*
%TO.N,/15*%
X27235000Y-49530000D02*
X45720000Y-49530000D01*
X45720000Y-49530000D02*
X83820000Y-49530000D01*
%TO.N,/14*%
X85085000Y-115565000D02*
X85090000Y-115570000D01*
X85080000Y-115565000D02*
X85085000Y-115565000D01*
%TO.N,/8*%
X36125000Y-58420000D02*
X81280000Y-58420000D01*
X81280000Y-58420000D02*
X147320000Y-58420000D01*
%TO.N,/10*%
X62225000Y-105410000D02*
X62220000Y-105405000D01*
X62220000Y-105405000D02*
X49520000Y-105405000D01*
X68725000Y-141115000D02*
X62220000Y-141115000D01*
X49670000Y-141115000D02*
X49520000Y-140965000D01*
X69850000Y-142240000D02*
X68725000Y-141115000D01*
%TO.N,/9*%
X25965000Y-66040000D02*
X34855000Y-57150000D01*
%TO.N,/10*%
X62220000Y-141115000D02*
X49670000Y-141115000D01*
X62230000Y-105410000D02*
X62225000Y-105410000D01*
%TO.N,/9*%
X34855000Y-57150000D02*
X147320000Y-57150000D01*
%TO.N,/10*%
X25965000Y-63500000D02*
X33585000Y-55880000D01*
%TO.N,/11*%
X63500000Y-138430000D02*
X48260000Y-138430000D01*
X69850000Y-139700000D02*
X64770000Y-139700000D01*
X48250000Y-107945000D02*
X48255000Y-107950000D01*
X64770000Y-139700000D02*
X63500000Y-138430000D01*
X62230000Y-107950000D02*
X48255000Y-107950000D01*
%TO.N,/10*%
X33585000Y-55880000D02*
X147320000Y-55880000D01*
%TO.N,/11*%
X25965000Y-60960000D02*
X32315000Y-54610000D01*
%TO.N,/13*%
X46985000Y-115570000D02*
X46980000Y-115565000D01*
X69850000Y-137160000D02*
X68725000Y-136035000D01*
%TO.N,/11*%
X32315000Y-54610000D02*
X147320000Y-54610000D01*
%TO.N,/13*%
X68725000Y-136035000D02*
X47135000Y-136035000D01*
X62230000Y-115570000D02*
X46985000Y-115570000D01*
X47135000Y-136035000D02*
X46990000Y-135890000D01*
%TO.N,/12*%
X31045000Y-53340000D02*
X147320000Y-53340000D01*
%TO.N,/15*%
X62225000Y-118110000D02*
X62220000Y-118105000D01*
X62230000Y-118110000D02*
X62225000Y-118110000D01*
X62220000Y-118105000D02*
X45710000Y-118105000D01*
%TO.N,/12*%
X25965000Y-58420000D02*
X31045000Y-53340000D01*
X25965000Y-58420000D02*
X26670000Y-58420000D01*
%TO.N,/15*%
X69850000Y-134620000D02*
X64770000Y-134620000D01*
X64770000Y-134620000D02*
X63500000Y-133350000D01*
X63500000Y-133350000D02*
X45720000Y-133350000D01*
%TO.N,/LOAD*%
X52085000Y-171450000D02*
X49535000Y-168900000D01*
X49535000Y-168900000D02*
X49535000Y-156210000D01*
%TO.N,/2*%
X54605000Y-76195000D02*
X54610000Y-76200000D01*
X62230000Y-76200000D02*
X54605000Y-76200000D01*
%TO.N,/1*%
X25965000Y-86360000D02*
X45015000Y-67310000D01*
%TO.N,/2*%
X69850000Y-152400000D02*
X68575000Y-151125000D01*
%TO.N,/1*%
X25965000Y-86360000D02*
X26670000Y-86360000D01*
%TO.N,/2*%
X68575000Y-151125000D02*
X54600000Y-151125000D01*
X62225000Y-76200000D02*
X62220000Y-76195000D01*
X62230000Y-76200000D02*
X62225000Y-76200000D01*
X54600000Y-76195000D02*
X54605000Y-76195000D01*
%TO.N,/1*%
X45015000Y-67310000D02*
X147320000Y-67310000D01*
%TO.N,/2*%
X54605000Y-76200000D02*
X54600000Y-76195000D01*
%TO.N,/3*%
X68570000Y-148585000D02*
X53330000Y-148585000D01*
X53335000Y-78740000D02*
X53330000Y-78735000D01*
%TO.N,/2*%
X43745000Y-66040000D02*
X53340000Y-66040000D01*
%TO.N,/3*%
X69845000Y-149860000D02*
X69840000Y-149855000D01*
X53330000Y-78735000D02*
X53335000Y-78735000D01*
X69850000Y-149860000D02*
X69845000Y-149860000D01*
X69840000Y-149855000D02*
X68570000Y-148585000D01*
X62230000Y-78740000D02*
X53335000Y-78740000D01*
%TO.N,/2*%
X53340000Y-66040000D02*
X147320000Y-66040000D01*
X25965000Y-83820000D02*
X43745000Y-66040000D01*
%TO.N,/3*%
X53335000Y-78735000D02*
X53340000Y-78740000D01*
%TO.N,/5*%
X62220000Y-86355000D02*
X52060000Y-86355000D01*
%TO.N,/3*%
X25965000Y-81280000D02*
X42475000Y-64770000D01*
%TO.N,/5*%
X62225000Y-86360000D02*
X62220000Y-86355000D01*
X52210000Y-146195000D02*
X52060000Y-146045000D01*
X68725000Y-146195000D02*
X52210000Y-146195000D01*
X62230000Y-86360000D02*
X62225000Y-86360000D01*
%TO.N,/3*%
X42475000Y-64770000D02*
X52070000Y-64770000D01*
%TO.N,/5*%
X69850000Y-147320000D02*
X68725000Y-146195000D01*
%TO.N,/7*%
X62230000Y-88900000D02*
X50795000Y-88900000D01*
%TO.N,/4*%
X41205000Y-63500000D02*
X147320000Y-63500000D01*
%TO.N,/7*%
X50795000Y-88900000D02*
X50790000Y-88895000D01*
%TO.N,/4*%
X25965000Y-78740000D02*
X41205000Y-63500000D01*
%TO.N,/7*%
X69840000Y-144775000D02*
X68570000Y-143505000D01*
X69850000Y-144780000D02*
X69845000Y-144780000D01*
X69845000Y-144780000D02*
X69840000Y-144775000D01*
X68570000Y-143505000D02*
X50790000Y-143505000D01*
%TO.N,/8*%
X81265000Y-88900000D02*
X81270000Y-88895000D01*
X69850000Y-88900000D02*
X81265000Y-88900000D01*
%TO.N,/5*%
X25965000Y-76200000D02*
X39935000Y-62230000D01*
%TO.N,/6*%
X25965000Y-73660000D02*
X38665000Y-60960000D01*
X69850000Y-86360000D02*
X79995000Y-86360000D01*
X38665000Y-60960000D02*
X80010000Y-60960000D01*
X80010000Y-60960000D02*
X147320000Y-60960000D01*
X79995000Y-86360000D02*
X80000000Y-86355000D01*
%TO.N,/7*%
X25965000Y-71120000D02*
X37395000Y-59690000D01*
%TO.N,/4*%
X69845000Y-78740000D02*
X69840000Y-78735000D01*
X69840000Y-78735000D02*
X78730000Y-78735000D01*
%TO.N,/7*%
X37395000Y-59690000D02*
X147320000Y-59690000D01*
%TO.N,/4*%
X69850000Y-78740000D02*
X69845000Y-78740000D01*
%TO.N,/1*%
X69850000Y-76200000D02*
X69845000Y-76200000D01*
%TO.N,/8*%
X25965000Y-68580000D02*
X36125000Y-58420000D01*
%TO.N,/1*%
X69845000Y-76200000D02*
X69840000Y-76195000D01*
X69840000Y-76195000D02*
X77460000Y-76195000D01*
%TO.N,Vdd*%
X68485000Y-157385000D02*
X69850000Y-158750000D01*
X55790000Y-157385000D02*
X68485000Y-157385000D01*
X54615000Y-156210000D02*
X55790000Y-157385000D01*
%TO.N,/16*%
X69850000Y-118110000D02*
X69845000Y-118110000D01*
X69840000Y-118105000D02*
X86350000Y-118105000D01*
X69845000Y-118110000D02*
X69840000Y-118105000D01*
%TO.N,/14*%
X69845000Y-115570000D02*
X69840000Y-115565000D01*
X25965000Y-53340000D02*
X28505000Y-50800000D01*
X85090000Y-50800000D02*
X147320000Y-50800000D01*
X69850000Y-115570000D02*
X69845000Y-115570000D01*
X69840000Y-115565000D02*
X85080000Y-115565000D01*
X28505000Y-50800000D02*
X85090000Y-50800000D01*
%TO.N,/15*%
X25965000Y-50800000D02*
X27235000Y-49530000D01*
%TO.N,/12*%
X69850000Y-107950000D02*
X83805000Y-107950000D01*
X83805000Y-107950000D02*
X83810000Y-107945000D01*
%TO.N,/15*%
X83820000Y-49530000D02*
X147320000Y-49530000D01*
%TO.N,/9*%
X69845000Y-105410000D02*
X69840000Y-105405000D01*
X69840000Y-105405000D02*
X82540000Y-105405000D01*
%TO.N,/16*%
X25965000Y-48260000D02*
X82550000Y-48260000D01*
X82550000Y-48260000D02*
X147320000Y-48260000D01*
%TO.N,/9*%
X69850000Y-105410000D02*
X69845000Y-105410000D01*
%TO.N,/~{ENABLE}*%
X52075000Y-156210000D02*
X52070000Y-156210000D01*
X73660000Y-157480000D02*
X73660000Y-154940000D01*
X73660000Y-135890000D02*
X69850000Y-132080000D01*
X68725000Y-160165000D02*
X69850000Y-161290000D01*
X52070000Y-156210000D02*
X53340000Y-154940000D01*
X69850000Y-161290000D02*
X73660000Y-157480000D01*
X53340000Y-154940000D02*
X73660000Y-154940000D01*
X73660000Y-154940000D02*
X73660000Y-135890000D01*
%TO.N,Vss*%
X89775000Y-91440000D02*
X88505000Y-92710000D01*
X64770000Y-133350000D02*
X64770000Y-125730000D01*
X62230000Y-93980000D02*
X62230000Y-95250000D01*
X62230000Y-123190000D02*
X64770000Y-123190000D01*
X89775000Y-120650000D02*
X89775000Y-102870000D01*
X63500000Y-92710000D02*
X62230000Y-93980000D01*
X64770000Y-123190000D02*
X64770000Y-125730000D01*
X89775000Y-73660000D02*
X89775000Y-91440000D01*
X62230000Y-95250000D02*
X64770000Y-97790000D01*
X52085000Y-166370000D02*
X52070000Y-166370000D01*
X89775000Y-102870000D02*
X89775000Y-91440000D01*
X88505000Y-92710000D02*
X63500000Y-92710000D01*
%TO.N,/CLK*%
X46995000Y-168900000D02*
X52085000Y-173990000D01*
X46995000Y-156210000D02*
X46995000Y-168900000D01*
%TO.N,Net-(J3-Pad6)*%
X76200000Y-165100000D02*
X76200000Y-125730000D01*
X52070000Y-168910000D02*
X53195000Y-170035000D01*
X69850000Y-93980000D02*
X69850000Y-95250000D01*
X71265000Y-170035000D02*
X76200000Y-165100000D01*
X76200000Y-125730000D02*
X73660000Y-123190000D01*
X53195000Y-170035000D02*
X71265000Y-170035000D01*
X52085000Y-168910000D02*
X52070000Y-168910000D01*
X73660000Y-123190000D02*
X69850000Y-123190000D01*
X69850000Y-95250000D02*
X67310000Y-97790000D01*
%TO.N,Net-(D2-Pad2)*%
X88025000Y-76200000D02*
X87630000Y-76200000D01*
X63500000Y-73660000D02*
X64770000Y-74930000D01*
X87630000Y-76200000D02*
X86360000Y-74930000D01*
X86360000Y-74930000D02*
X64770000Y-74930000D01*
X62230000Y-73660000D02*
X63500000Y-73660000D01*
%TO.N,Net-(D3-Pad2)*%
X88025000Y-78740000D02*
X87630000Y-78740000D01*
X87630000Y-78740000D02*
X86505000Y-77615000D01*
X65895000Y-77615000D02*
X62230000Y-81280000D01*
X86505000Y-77615000D02*
X65895000Y-77615000D01*
%TO.N,Net-(D5-Pad2)*%
X87630000Y-83820000D02*
X86505000Y-82695000D01*
X86505000Y-82695000D02*
X63355000Y-82695000D01*
X88025000Y-83820000D02*
X87630000Y-83820000D01*
X63355000Y-82695000D02*
X62230000Y-83820000D01*
%TO.N,Net-(D7-Pad2)*%
X63500000Y-90170000D02*
X87630000Y-90170000D01*
X88025000Y-88900000D02*
X88025000Y-89775000D01*
X88025000Y-89775000D02*
X87630000Y-90170000D01*
X62230000Y-91440000D02*
X63500000Y-90170000D01*
%TO.N,Net-(D10-Pad2)*%
X88025000Y-105410000D02*
X86610000Y-103995000D01*
X86610000Y-103995000D02*
X63355000Y-103995000D01*
X63355000Y-103995000D02*
X62230000Y-102870000D01*
%TO.N,Net-(D11-Pad2)*%
X87775000Y-106825000D02*
X65895000Y-106825000D01*
X65895000Y-106825000D02*
X62230000Y-110490000D01*
X88025000Y-107950000D02*
X88900000Y-107950000D01*
X88900000Y-107950000D02*
X87775000Y-106825000D01*
%TO.N,Net-(D13-Pad2)*%
X63355000Y-111905000D02*
X62230000Y-113030000D01*
X88025000Y-113030000D02*
X86900000Y-111905000D01*
X86900000Y-111905000D02*
X63355000Y-111905000D01*
%TO.N,Net-(D15-Pad2)*%
X88025000Y-118110000D02*
X86900000Y-119235000D01*
X86900000Y-119235000D02*
X63645000Y-119235000D01*
X63645000Y-119235000D02*
X62230000Y-120650000D01*
%TO.N,Net-(D16-Pad2)*%
X88025000Y-120650000D02*
X69850000Y-120650000D01*
%TO.N,Net-(D14-Pad2)*%
X85485000Y-113030000D02*
X69850000Y-113030000D01*
X88025000Y-115570000D02*
X85485000Y-113030000D01*
%TO.N,Net-(D12-Pad2)*%
X88025000Y-110490000D02*
X69850000Y-110490000D01*
%TO.N,Net-(D9-Pad2)*%
X69850000Y-102870000D02*
X88025000Y-102870000D01*
%TO.N,Net-(D8-Pad2)*%
X69850000Y-91440000D02*
X87630000Y-91440000D01*
%TO.N,Net-(D6-Pad2)*%
X85485000Y-83820000D02*
X69850000Y-83820000D01*
X88025000Y-86360000D02*
X85485000Y-83820000D01*
%TO.N,Net-(D4-Pad2)*%
X69850000Y-81280000D02*
X87630000Y-81280000D01*
%TO.N,Net-(D1-Pad2)*%
X69850000Y-73660000D02*
X87630000Y-73660000D01*
%TD*%
M02*
